<?xml version="1.0" encoding="UTF-8"?>
<!DOCTYPE svg PUBLIC "-//W3C//DTD SVG 1.1//EN" "http://www.w3.org/Graphics/SVG/1.1/DTD/svg11.dtd">
<svg xmlns="http://www.w3.org/2000/svg" version="1.1" width="3840px" height="2160px" style="shape-rendering:geometricPrecision; text-rendering:geometricPrecision; image-rendering:optimizeQuality; fill-rule:evenodd; clip-rule:evenodd" xmlns:xlink="http://www.w3.org/1999/xlink">
<g><path style="opacity:1" fill="#00b0aa" d="M -0.5,-0.5 C 1279.5,-0.5 2559.5,-0.5 3839.5,-0.5C 3839.5,719.5 3839.5,1439.5 3839.5,2159.5C 2559.5,2159.5 1279.5,2159.5 -0.5,2159.5C -0.5,1439.5 -0.5,719.5 -0.5,-0.5 Z"/></g>
<g><path style="opacity:1" fill="#fefefe" d="M 640.5,455.5 C 667.873,455.127 695.207,455.96 722.5,458C 730.085,459.453 737.418,461.787 744.5,465C 774.089,484.443 783.589,511.276 773,545.5C 761.284,571.097 740.951,584.097 712,584.5C 690.657,582.529 669.157,582.029 647.5,583C 626.11,585.346 605.777,591.346 586.5,601C 574.062,609.049 563.062,618.716 553.5,630C 553.833,630.333 554.167,630.667 554.5,631C 546.929,640.179 540.929,650.346 536.5,661.5C 532.209,675.497 528.376,689.497 525,703.5C 523.16,720.5 522.16,737.833 522,755.5C 521.13,756.108 520.63,756.941 520.5,758C 520.649,887.943 520.983,1017.94 521.5,1148C 519.957,1152.04 518.29,1156.04 516.5,1160C 516.957,1160.41 517.291,1160.91 517.5,1161.5C 501.664,1192.11 476.664,1204.28 442.5,1198C 417.82,1190.17 402.487,1174 396.5,1149.5C 395.333,1006.5 395.167,863.501 396,720.5C 397.373,707.777 399.206,695.11 401.5,682.5C 401.43,681.228 401.097,680.062 400.5,679C 402.218,673.905 403.885,668.739 405.5,663.5C 416.595,603.192 445.595,552.692 492.5,512C 532.692,481.724 577.692,464.058 627.5,459C 632.109,458.229 636.442,457.062 640.5,455.5 Z"/></g>
<g><path style="opacity:1" fill="#fefefe" d="M 893.5,459.5 C 928.143,458.389 951.143,473.889 962.5,506C 961.077,507.412 961.244,508.579 963,509.5C 963.333,512.833 963.667,516.167 964,519.5C 964.667,726.5 964.667,933.5 964,1140.5C 961.511,1165.67 949.011,1183.84 926.5,1195C 896.213,1205.64 870.546,1198.98 849.5,1175C 849.833,1174.67 850.167,1174.33 850.5,1174C 844.625,1166.42 840.791,1157.92 839,1148.5C 838.333,936.167 838.333,723.833 839,511.5C 845.351,481.647 863.517,464.313 893.5,459.5 Z"/></g>
<g><path style="opacity:0.999" fill="#fefefe" d="M 1087.5,598.5 C 1093.05,598.736 1098.55,598.736 1104,598.5C 1125.32,602.15 1141.49,613.317 1152.5,632C 1205.51,740.351 1258.84,848.018 1312.5,955C 1312.17,955.333 1311.83,955.667 1311.5,956C 1313.08,958.227 1314.74,960.393 1316.5,962.5C 1341.77,912.518 1366.6,863.184 1391,814.5C 1392.41,808.852 1394.91,803.685 1398.5,799C 1398.17,798.667 1397.83,798.333 1397.5,798C 1413.7,767.565 1428.86,737.065 1443,706.5C 1456.33,679.833 1469.67,653.167 1483,626.5C 1494.67,611.264 1510,601.931 1529,598.5C 1534.33,598.5 1539.67,598.5 1545,598.5C 1580.94,606.838 1598.94,629.838 1599,667.5C 1598.67,670.5 1598.33,673.5 1598,676.5C 1593.12,690.73 1586.96,703.897 1579.5,716C 1536.42,805.498 1492.42,894.831 1447.5,984C 1388.75,1103.03 1329.25,1223.87 1269,1346.5C 1245.57,1377.56 1216.4,1384.4 1181.5,1367C 1152.99,1346.45 1144.82,1319.61 1157,1286.5C 1183.96,1231.98 1211.13,1177.48 1238.5,1123C 1241.2,1118.09 1243.2,1112.93 1244.5,1107.5C 1244.31,1105.42 1243.81,1103.42 1243,1101.5C 1183.58,981.678 1124.25,861.678 1065,741.5C 1054.54,720.958 1044.37,699.791 1034.5,678C 1028.74,646.913 1039.07,622.913 1065.5,606C 1072.59,602.566 1079.93,600.066 1087.5,598.5 Z"/></g>
<g><path style="opacity:0.999" fill="#fefefe" d="M 3069.5,601.5 C 3077.51,601.334 3085.51,601.5 3093.5,602C 3094.42,602.374 3095.25,602.874 3096,603.5C 3102.33,603.167 3108.67,602.833 3115,602.5C 3115.5,603 3116,603.5 3116.5,604C 3173.6,609.001 3225.93,627.001 3273.5,658C 3284.5,667.817 3291.5,679.984 3294.5,694.5C 3294.36,700.638 3294.36,706.805 3294.5,713C 3284.19,750.52 3259.52,766.52 3220.5,761C 3200.34,751.386 3180.34,741.386 3160.5,731C 3148.45,726.991 3136.45,722.991 3124.5,719C 3117.18,717.867 3110.02,716.367 3103,714.5C 3100.67,714.833 3098.33,715.167 3096,715.5C 3095.5,715 3095,714.5 3094.5,714C 3084.5,713.333 3074.5,713.333 3064.5,714C 3061.79,715.3 3059.13,715.467 3056.5,714.5C 3038.52,717.074 3023.35,725.074 3011,738.5C 3004.46,747.307 3001.63,757.307 3002.5,768.5C 3001.43,778.649 3003.59,787.982 3009,796.5C 3019.44,808.083 3031.94,816.583 3046.5,822C 3065.96,828.905 3084.96,834.905 3103.5,840C 3133.11,847.312 3162.44,855.646 3191.5,865C 3216.94,874.47 3240.6,887.136 3262.5,903C 3283.44,920.214 3298.28,941.381 3307,966.5C 3308.11,972.44 3309.61,978.274 3311.5,984C 3312.65,996.793 3313.98,1009.46 3315.5,1022C 3312.06,1111.39 3267.06,1168.72 3180.5,1194C 3070.36,1216.56 2969.69,1196.22 2878.5,1133C 2858.43,1114.9 2851.93,1092.73 2859,1066.5C 2872.06,1036.71 2894.89,1024.21 2927.5,1029C 2933.47,1030.94 2939.47,1032.94 2945.5,1035C 2975.6,1058.55 3009.27,1075.55 3046.5,1086C 3079.78,1094.08 3113.11,1094.41 3146.5,1087C 3181.35,1075.53 3194.85,1052.03 3187,1016.5C 3182.01,1005.84 3174.51,997.344 3164.5,991C 3151.63,984.099 3138.29,978.265 3124.5,973.5C 3090.93,963.846 3057.6,954.679 3024.5,946C 3013.7,941.88 3002.7,938.213 2991.5,935C 2969.86,926.682 2949.53,916.015 2930.5,903C 2896.13,875.431 2877.97,839.931 2876,796.5C 2871.29,715.573 2905.46,657.406 2978.5,622C 3001.09,612.103 3024.75,606.103 3049.5,604C 3050.03,603.308 3050.69,602.808 3051.5,602.5C 3057.41,602.636 3063.24,602.969 3069,603.5C 3069.46,602.906 3069.63,602.239 3069.5,601.5 Z"/></g>
<g><path style="opacity:1" fill="#fefefe" d="M 1860.5,602.5 C 1876.5,603.168 1892.33,603.168 1908,602.5C 2012.39,616.58 2087.23,671.08 2132.5,766C 2132.17,766.333 2131.83,766.667 2131.5,767C 2146.99,800.407 2156.15,835.574 2159,872.5C 2159.02,882.992 2159.69,893.326 2161,903.5C 2161.67,982.167 2161.67,1060.83 2161,1139.5C 2159.2,1167.49 2145.37,1187.16 2119.5,1198.5C 2088.82,1207.47 2063.65,1199.47 2044,1174.5C 2040.74,1168.38 2038.07,1162.05 2036,1155.5C 2034.82,1065.7 2033.99,975.863 2033.5,886C 2030.54,848.174 2018.37,814.008 1997,783.5C 1961.76,741.521 1916.76,723.854 1862,730.5C 1810.27,740.691 1774.1,769.191 1753.5,816C 1751.45,819.328 1749.61,822.828 1748,826.5C 1742.84,842.653 1738.84,858.987 1736,875.5C 1734.7,966.819 1734.04,1058.15 1734,1149.5C 1724.82,1186 1701.32,1203.5 1663.5,1202C 1638.68,1197.7 1621.35,1183.86 1611.5,1160.5C 1610.26,1155.57 1609.43,1150.57 1609,1145.5C 1608.5,1145 1608,1144.5 1607.5,1144C 1607.62,1060.21 1607.62,976.377 1607.5,892.5C 1607.81,891.692 1608.31,891.025 1609,890.5C 1610.93,831.769 1626.59,778.103 1656,729.5C 1693.58,670.713 1746.41,631.213 1814.5,611C 1829.26,607.177 1844.26,604.844 1859.5,604C 1860.06,603.617 1860.39,603.117 1860.5,602.5 Z"/></g>
<g><path style="opacity:0.999" fill="#fefefe" d="M 2483.5,602.5 C 2499.72,602.736 2515.88,602.736 2532,602.5C 2631.76,613.161 2707.43,660.827 2759,745.5C 2762.77,754.202 2766.93,762.702 2771.5,771C 2784.87,801.857 2793.37,834.69 2797,869.5C 2798.61,961.156 2798.94,1052.82 2798,1144.5C 2795.45,1170.09 2782.28,1187.92 2758.5,1198C 2730.43,1206.79 2706.26,1200.62 2686,1179.5C 2679.14,1170.58 2674.81,1160.58 2673,1149.5C 2673.16,1062.42 2672.32,975.416 2670.5,888.5C 2671.08,884.636 2671.41,880.803 2671.5,877C 2671,876.5 2670.5,876 2670,875.5C 2663.66,824.206 2639.5,783.706 2597.5,754C 2550.61,726.943 2501.28,721.943 2449.5,739C 2422.5,749.661 2399.66,766.161 2381,788.5C 2374.65,798.836 2368.32,809.169 2362,819.5C 2339.05,873.978 2338.71,928.645 2361,983.5C 2392.19,1045.92 2442.53,1076.58 2512,1075.5C 2529.88,1075.65 2546.22,1074.65 2561,1072.5C 2599.14,1080.94 2618.31,1104.44 2618.5,1143C 2616.89,1147.82 2615.22,1152.65 2613.5,1157.5C 2611.85,1164.93 2608.18,1171.6 2602.5,1177.5C 2597.98,1181.85 2593.32,1186.02 2588.5,1190C 2582.25,1193.79 2575.58,1196.46 2568.5,1198C 2493.53,1211.18 2423.19,1199.01 2357.5,1161.5C 2296.7,1122.49 2255.2,1068.82 2233,1000.5C 2229.17,984.427 2225.34,968.76 2221.5,953.5C 2222.02,950.942 2222.35,948.442 2222.5,946C 2222,945.5 2221.5,945 2221,944.5C 2220.09,934.183 2219.42,923.85 2219,913.5C 2218.5,913 2218,912.5 2217.5,912C 2218.83,905.667 2218.83,899.333 2217.5,893C 2218,892.5 2218.5,892 2219,891.5C 2219.42,881.15 2220.09,870.817 2221,860.5C 2228.97,800.513 2252.63,746.513 2292,698.5C 2343.88,642.312 2407.71,610.312 2483.5,602.5 Z"/></g>
<g><path style="opacity:0.994" fill="#fcfefe" d="M 3377.5,612.5 C 3411.13,609.758 3432.8,624.091 3442.5,655.5C 3446.53,681.574 3438.2,701.741 3417.5,716C 3388.66,731.211 3363.49,726.711 3342,702.5C 3331.57,686.941 3328.57,669.941 3333,651.5C 3340.59,630.068 3355.42,617.068 3377.5,612.5 Z"/></g>
<g><path style="opacity:1" fill="#0db1ab" d="M 3381.5,621.5 C 3400.65,620.656 3415.81,627.99 3427,643.5C 3429.86,648.069 3431.52,653.069 3432,658.5C 3435.61,691.436 3420.77,710.436 3387.5,715.5C 3351.86,709.917 3337.03,689.251 3343,653.5C 3349.8,635.547 3362.64,624.88 3381.5,621.5 Z"/></g>
<g><path style="opacity:0.998" fill="#fdfefe" d="M 3369.5,635.5 C 3377.84,636.492 3386.34,636.492 3395,635.5C 3401.03,636.85 3406.37,639.517 3411,643.5C 3415.22,651.263 3415.55,659.263 3412,667.5C 3409.46,670.372 3406.63,672.872 3403.5,675C 3408.61,679.594 3412.27,685.094 3414.5,691.5C 3412.75,697.026 3409.09,698.859 3403.5,697C 3398.34,691.223 3393.34,685.223 3388.5,679C 3387.58,678.626 3386.75,678.126 3386,677.5C 3384,678.833 3382,678.833 3380,677.5C 3378.95,683.101 3377.95,688.768 3377,694.5C 3373.72,697.797 3369.89,698.464 3365.5,696.5C 3364.37,677.531 3364.2,658.531 3365,639.5C 3366.25,637.807 3367.75,636.473 3369.5,635.5 Z"/></g>
<g><path style="opacity:1" fill="#1bb3ad" d="M 3379.5,648.5 C 3385.74,647.965 3391.74,648.798 3397.5,651C 3398.5,652 3399.5,653 3400.5,654C 3400.61,656.734 3400.11,659.568 3399,662.5C 3397.75,663.211 3396.58,664.044 3395.5,665C 3390.17,665.667 3384.83,665.667 3379.5,665C 3378.19,659.5 3378.19,654 3379.5,648.5 Z"/></g>
<g><path style="opacity:0.999" fill="#fefefe" d="M 608.5,741.5 C 643.656,737.915 668.156,752.249 682,784.5C 690.32,821.686 677.487,848.186 643.5,864C 613.031,872.696 588.198,864.862 569,840.5C 555.844,817.849 555.177,794.849 567,771.5C 577.078,756.248 590.912,746.248 608.5,741.5 Z"/></g>
<g><path style="opacity:0.997" fill="#fdfefe" d="M 2330.5,1346.5 C 2349.01,1346.18 2357.18,1355.18 2355,1373.5C 2353.47,1375.22 2352.47,1377.22 2352,1379.5C 2349.04,1383.06 2345.38,1385.72 2341,1387.5C 2337.57,1386.36 2334.07,1386.36 2330.5,1387.5C 2326.56,1386.3 2323.06,1384.3 2320,1381.5C 2310.36,1365.69 2313.86,1354.02 2330.5,1346.5 Z"/></g>
<g><path style="opacity:0.997" fill="#fdfefe" d="M 2563.5,1346.5 C 2579.02,1344.86 2588.02,1351.69 2590.5,1367C 2588.89,1370.26 2587.72,1373.76 2587,1377.5C 2577.39,1388.34 2566.73,1390 2555,1382.5C 2546.7,1371.9 2546.87,1361.4 2555.5,1351C 2558,1349.02 2560.66,1347.52 2563.5,1346.5 Z"/></g>
<g><path style="opacity:0.997" fill="#fefefe" d="M 2145.5,1347.5 C 2153.58,1347.11 2160.42,1349.78 2166,1355.5C 2166.47,1357.25 2167.14,1358.91 2168,1360.5C 2168.33,1403.83 2168.67,1447.17 2169,1490.5C 2169.44,1505.54 2172.1,1520.21 2177,1534.5C 2187.81,1558.82 2206.64,1571.98 2233.5,1574C 2260.83,1574.5 2288.16,1574.67 2315.5,1574.5C 2315.33,1535.17 2315.5,1495.83 2316,1456.5C 2319.61,1444.88 2327.44,1439.72 2339.5,1441C 2344.05,1441.46 2348.05,1442.96 2351.5,1445.5C 2352.71,1448.92 2354.21,1452.25 2356,1455.5C 2356.67,1503.5 2356.67,1551.5 2356,1599.5C 2353.5,1607.33 2348.33,1612.5 2340.5,1615C 2304.5,1615.67 2268.5,1615.67 2232.5,1615C 2175.46,1609.63 2141.63,1578.79 2131,1522.5C 2130.02,1513.86 2129.35,1505.19 2129,1496.5C 2128.33,1453.17 2128.33,1409.83 2129,1366.5C 2130.42,1356.58 2135.92,1350.25 2145.5,1347.5 Z"/></g>
<g><path style="opacity:0.994" fill="#fefefe" d="M 2725.5,1348.5 C 2734.09,1347.55 2740.76,1350.05 2745.5,1356C 2748.16,1358.16 2749.49,1360.66 2749.5,1363.5C 2750.83,1402.86 2751.49,1442.36 2751.5,1482C 2751.33,1521.17 2751.17,1560.33 2751,1599.5C 2746.19,1614.37 2736.03,1619.21 2720.5,1614C 2716.58,1610.75 2713.41,1606.92 2711,1602.5C 2710.33,1522.83 2710.33,1443.17 2711,1363.5C 2713.37,1355.97 2718.2,1350.97 2725.5,1348.5 Z"/></g>
<g><path style="opacity:0.998" fill="#fefefe" d="M 3031.5,1348.5 C 3037.86,1348.51 3043.86,1350.01 3049.5,1353C 3052.39,1355.68 3054.56,1358.84 3056,1362.5C 3056.33,1394.5 3056.67,1426.5 3057,1458.5C 3059.46,1457.36 3061.62,1455.86 3063.5,1454C 3066.83,1450.33 3070.17,1446.67 3073.5,1443C 3095.02,1426.58 3118.36,1415.58 3143.5,1410C 3167.79,1407.11 3192.13,1406.78 3216.5,1409C 3230.25,1411.39 3243.25,1415.72 3255.5,1422C 3276.18,1434.28 3289.35,1451.78 3295,1474.5C 3295.83,1479.14 3296.5,1483.81 3297,1488.5C 3297.5,1489 3298,1489.5 3298.5,1490C 3298.06,1527.12 3298.06,1564.12 3298.5,1601C 3295.84,1607.66 3291.18,1612.32 3284.5,1615C 3130.5,1615.5 2976.5,1615.67 2822.5,1615.5C 2822.51,1619.81 2821.51,1623.81 2819.5,1627.5C 2819.71,1628.09 2820.04,1628.59 2820.5,1629C 2808.55,1662.79 2786.22,1687.29 2753.5,1702.5C 2742.3,1705.14 2733.8,1701.47 2728,1691.5C 2724.12,1680.84 2726.62,1672 2735.5,1665C 2741.58,1662.79 2747.25,1659.79 2752.5,1656C 2763.52,1646.98 2772.35,1636.14 2779,1623.5C 2781.66,1615.36 2783.32,1607.03 2784,1598.5C 2784.33,1550.17 2784.67,1501.83 2785,1453.5C 2789.97,1442.49 2798.47,1438.33 2810.5,1441C 2816.66,1443.15 2821.33,1447.15 2824.5,1453C 2823.15,1454.64 2823.32,1456.14 2825,1457.5C 2825.5,1496.5 2825.67,1535.5 2825.5,1574.5C 2840.84,1574.67 2856.17,1574.5 2871.5,1574C 2882.66,1571.19 2890.49,1564.36 2895,1553.5C 2896.05,1549.07 2897.38,1544.74 2899,1540.5C 2899.05,1511.13 2899.72,1481.8 2901,1452.5C 2908.57,1440.03 2919.07,1437.03 2932.5,1443.5C 2937.42,1447.34 2940.25,1452.34 2941,1458.5C 2941.76,1485.01 2941.6,1511.51 2940.5,1538C 2939.43,1550.7 2936.1,1562.7 2930.5,1574C 2930.64,1574.77 2930.98,1575.44 2931.5,1576C 3039.87,1576.83 3148.21,1576.66 3256.5,1575.5C 3257.83,1549.17 3257.83,1522.83 3256.5,1496.5C 3255.53,1490.8 3254.36,1485.13 3253,1479.5C 3250.88,1474.77 3248.21,1470.43 3245,1466.5C 3240.66,1462.31 3235.83,1458.81 3230.5,1456C 3191.06,1442.45 3152.9,1445.29 3116,1464.5C 3104.1,1472.4 3093.1,1481.4 3083,1491.5C 3075.84,1500.48 3069.18,1509.81 3063,1519.5C 3060.9,1526.72 3058.06,1533.89 3054.5,1541C 3054.24,1544.12 3052.58,1546.79 3049.5,1549C 3038.79,1555.39 3028.96,1554.23 3020,1545.5C 3017.82,1541.83 3016.49,1538.16 3016,1534.5C 3015.33,1478.5 3015.33,1422.5 3016,1366.5C 3016.95,1363.37 3018.28,1360.04 3020,1356.5C 3022.17,1355.67 3023.67,1354.17 3024.5,1352C 3027.4,1351.56 3029.73,1350.4 3031.5,1348.5 Z"/></g>
<g><path style="opacity:0.998" fill="#fefefe" d="M 1623.5,1440.5 C 1637.69,1438.55 1646.69,1444.38 1650.5,1458C 1650.17,1495.67 1649.83,1533.33 1649.5,1571C 1650,1571.5 1650.5,1572 1651,1572.5C 1652.51,1588.75 1658.18,1603.75 1668,1617.5C 1672.81,1622 1677.98,1626.17 1683.5,1630C 1691.21,1633.59 1699.21,1636.26 1707.5,1638C 1738.07,1638.83 1768.57,1638.66 1799,1637.5C 1799.33,1576.5 1799.67,1515.5 1800,1454.5C 1805.21,1441.44 1814.71,1437.28 1828.5,1442C 1834.21,1445.37 1838.04,1450.21 1840,1456.5C 1840.5,1495.83 1840.67,1535.17 1840.5,1574.5C 1858.5,1574.67 1876.5,1574.5 1894.5,1574C 1898.5,1573.5 1902.16,1572.16 1905.5,1570C 1914.21,1562.42 1919.71,1552.92 1922,1541.5C 1923.27,1512.53 1923.93,1483.53 1924,1454.5C 1926.06,1451.71 1927.56,1448.71 1928.5,1445.5C 1942.47,1437.06 1954.14,1439.56 1963.5,1453C 1964.8,1483.95 1964.8,1514.95 1963.5,1546C 1961.92,1550.66 1960.26,1555.33 1958.5,1560C 1957.77,1564.38 1956.43,1568.88 1954.5,1573.5C 1976.16,1574.67 1997.83,1574.83 2019.5,1574C 2029.57,1571.62 2037.07,1565.78 2042,1556.5C 2044.54,1551.09 2046.2,1545.42 2047,1539.5C 2047.33,1512.5 2047.67,1485.5 2048,1458.5C 2049.44,1449.38 2054.94,1443.54 2064.5,1441C 2068.57,1440.34 2072.57,1440.68 2076.5,1442C 2078.6,1443.77 2080.93,1445.1 2083.5,1446C 2085.17,1448.75 2086.67,1451.58 2088,1454.5C 2088.67,1483.5 2088.67,1512.5 2088,1541.5C 2084.45,1565.44 2073.95,1585.61 2056.5,1602C 2047.92,1608.21 2038.42,1612.37 2028,1614.5C 1965.51,1615.49 1903.01,1615.82 1840.5,1615.5C 1840.67,1630.84 1840.5,1646.17 1840,1661.5C 1838.12,1668.72 1833.95,1674.22 1827.5,1678C 1783.81,1678.96 1740.14,1678.62 1696.5,1677C 1675.12,1672.98 1656.46,1663.65 1640.5,1649C 1640.83,1648.67 1641.17,1648.33 1641.5,1648C 1622.12,1627.9 1611.62,1603.73 1610,1575.5C 1609.33,1534.83 1609.33,1494.17 1610,1453.5C 1612.45,1446.88 1616.95,1442.55 1623.5,1440.5 Z"/></g>
<g><path style="opacity:0.999" fill="#fdfefe" d="M 2462.5,1440.5 C 2473.34,1439.33 2480.84,1443.66 2485,1453.5C 2485.33,1487.5 2485.67,1521.5 2486,1555.5C 2487.26,1564.36 2488.26,1573.36 2489,1582.5C 2492.72,1602.43 2502.89,1618.27 2519.5,1630C 2530.27,1634.91 2541.6,1637.91 2553.5,1639C 2581.98,1639.99 2610.31,1639.66 2638.5,1638C 2637.34,1576.57 2637.17,1515.07 2638,1453.5C 2643.95,1442.11 2653.12,1438.28 2665.5,1442C 2673.03,1444.87 2677.2,1450.37 2678,1458.5C 2678.67,1526.17 2678.67,1593.83 2678,1661.5C 2677.2,1671.16 2671.7,1677.16 2661.5,1679.5C 2625.17,1680.67 2588.84,1680.83 2552.5,1680C 2545.64,1678.7 2538.64,1677.7 2531.5,1677C 2503.09,1671.51 2480.92,1657.01 2465,1633.5C 2452.48,1611.28 2446.15,1587.28 2446,1561.5C 2445.33,1527.17 2445.33,1492.83 2446,1458.5C 2447.22,1448.45 2452.72,1442.45 2462.5,1440.5 Z"/></g>
<g><path style="opacity:0.996" fill="#fdfefe" d="M 2866.5,1648.5 C 2876.39,1646.42 2884.55,1649.09 2891,1656.5C 2897.74,1674.36 2891.9,1685.36 2873.5,1689.5C 2855.78,1685.9 2849.78,1675.4 2855.5,1658C 2857.19,1656.64 2858.52,1654.98 2859.5,1653C 2862.24,1651.97 2864.57,1650.47 2866.5,1648.5 Z"/></g>
<g><path style="opacity:0.996" fill="#fdfefe" d="M 2924.5,1648.5 C 2943.59,1647.18 2952.92,1655.01 2952.5,1672C 2945.08,1689.35 2933.08,1693.52 2916.5,1684.5C 2914.87,1681.32 2913.37,1677.99 2912,1674.5C 2910.89,1668.57 2911.56,1662.91 2914,1657.5C 2917.1,1653.89 2920.6,1650.89 2924.5,1648.5 Z"/></g>
</svg>
