<?xml version="1.0" encoding="UTF-8"?>
<!DOCTYPE svg PUBLIC "-//W3C//DTD SVG 1.1//EN" "http://www.w3.org/Graphics/SVG/1.1/DTD/svg11.dtd">
<svg xmlns="http://www.w3.org/2000/svg" version="1.1" width="2000px" height="1125px" style="shape-rendering:geometricPrecision; text-rendering:geometricPrecision; image-rendering:optimizeQuality; fill-rule:evenodd; clip-rule:evenodd" xmlns:xlink="http://www.w3.org/1999/xlink">
<g><path style="opacity:0.988" fill="#b2da18" d="M 382.5,72.5 C 383.952,73.3019 385.618,73.8019 387.5,74C 395.827,74.4997 404.16,74.6664 412.5,74.5C 521.976,80.5904 630.976,92.9237 739.5,111.5C 743.591,112.895 747.924,113.562 752.5,113.5C 779.129,117.015 805.462,121.348 831.5,126.5C 835.591,127.895 839.924,128.562 844.5,128.5C 870.985,132.414 897.318,137.081 923.5,142.5C 925.78,144.223 928.447,144.889 931.5,144.5C 991.219,156.232 1050.89,168.399 1110.5,181C 1113.31,181.906 1115.98,183.073 1118.5,184.5C 1118.08,185.124 1117.42,185.457 1116.5,185.5C 1003.08,165.25 890.247,147.25 778,131.5C 698.528,122.546 619.861,115.213 542,109.5C 541.5,109.667 541,109.833 540.5,110C 576.783,126.221 612.783,143.055 648.5,160.5C 648.833,160.5 649.167,160.5 649.5,160.5C 649.5,161.167 649.833,161.5 650.5,161.5C 650.833,161.5 651.167,161.5 651.5,161.5C 654.768,163.134 658.101,164.801 661.5,166.5C 661.833,166.5 662.167,166.5 662.5,166.5C 662.5,167.167 662.833,167.5 663.5,167.5C 663.833,167.5 664.167,167.5 664.5,167.5C 664.5,168.167 664.833,168.5 665.5,168.5C 665.833,168.5 666.167,168.5 666.5,168.5C 666.5,169.167 666.833,169.5 667.5,169.5C 667.833,169.5 668.167,169.5 668.5,169.5C 668.5,170.167 668.833,170.5 669.5,170.5C 669.833,170.5 670.167,170.5 670.5,170.5C 670.5,171.167 670.833,171.5 671.5,171.5C 672.167,171.5 672.833,171.5 673.5,171.5C 673.5,172.167 673.833,172.5 674.5,172.5C 674.842,173.338 675.508,173.672 676.5,173.5C 676.842,174.338 677.508,174.672 678.5,174.5C 679.167,174.5 679.833,174.5 680.5,174.5C 680.842,175.338 681.508,175.672 682.5,175.5C 682.5,176.167 682.833,176.5 683.5,176.5C 683.5,177.167 683.833,177.5 684.5,177.5C 684.833,177.5 685.167,177.5 685.5,177.5C 685.5,178.167 685.833,178.5 686.5,178.5C 687.167,178.5 687.833,178.5 688.5,178.5C 688.842,179.338 689.508,179.672 690.5,179.5C 690.5,180.167 690.833,180.5 691.5,180.5C 691.842,181.338 692.508,181.672 693.5,181.5C 694.167,181.5 694.833,181.5 695.5,181.5C 696.659,183.25 698.326,184.25 700.5,184.5C 701.78,185.931 703.447,186.598 705.5,186.5C 705.842,187.338 706.508,187.672 707.5,187.5C 710.364,190.014 713.698,191.68 717.5,192.5C 831.636,248.734 943.636,308.901 1053.5,373C 1138.05,423.91 1220.72,477.577 1301.5,534C 1377.73,588.552 1450.73,647.218 1520.5,710C 1574.46,759.656 1624.96,812.822 1672,869.5C 1679.76,880.014 1687.76,890.347 1696,900.5C 1708.52,917.532 1719.52,935.532 1729,954.5C 1729.67,956.5 1729.67,958.5 1729,960.5C 1721.94,962.129 1715.1,961.295 1708.5,958C 1685.14,944.963 1663.14,929.963 1642.5,913C 1603.93,879.101 1566.6,843.768 1530.5,807C 1373.18,656.759 1203.18,523.592 1020.5,407.5C 1020.03,406.094 1019.03,405.427 1017.5,405.5C 863.645,305.625 702.645,218.125 534.5,143C 479.7,119.394 424.033,97.7278 367.5,78C 365.473,76.6043 365.14,74.9376 366.5,73C 371.823,72.5006 377.156,72.334 382.5,72.5 Z M 695.5,181.5 C 697.674,181.75 699.341,182.75 700.5,184.5C 698.326,184.25 696.659,183.25 695.5,181.5 Z"/></g>
<g><path style="opacity:0.235" fill="#6dbe2f" d="M 382.5,72.5 C 392.674,72.8395 402.674,73.5061 412.5,74.5C 404.16,74.6664 395.827,74.4997 387.5,74C 385.618,73.8019 383.952,73.3019 382.5,72.5 Z"/></g>
<g><path style="opacity:0.983" fill="#4fbd36" d="M 1118.5,184.5 C 1120.53,185.048 1121.53,186.381 1121.5,188.5C 1119.78,188.629 1118.12,188.962 1116.5,189.5C 1116.39,188.883 1116.06,188.383 1115.5,188C 971.279,165.416 827.112,146.583 683,131.5C 658.364,129.785 633.531,128.118 608.5,126.5C 607.304,126.846 607.304,127.346 608.5,128C 641.363,140.869 673.697,153.702 705.5,166.5C 705.833,167.833 706.167,167.833 706.5,166.5C 707.167,166.833 707.833,167.167 708.5,167.5C 708.5,168.167 708.833,168.5 709.5,168.5C 713.313,169.438 716.979,170.771 720.5,172.5C 720.833,173.833 721.167,173.833 721.5,172.5C 722.167,172.5 722.5,172.833 722.5,173.5C 722.842,174.338 723.508,174.672 724.5,174.5C 725.167,175.833 725.833,175.833 726.5,174.5C 727.167,174.5 727.5,174.833 727.5,175.5C 727.833,176.833 728.167,176.833 728.5,175.5C 729.167,175.5 729.5,175.833 729.5,176.5C 729.833,177.833 730.167,177.833 730.5,176.5C 731.492,176.328 732.158,176.662 732.5,177.5C 731.817,178.644 732.151,178.644 733.5,177.5C 734.167,177.5 734.5,177.833 734.5,178.5C 734.833,179.833 735.167,179.833 735.5,178.5C 736.167,178.5 736.5,178.833 736.5,179.5C 737.167,180.833 737.833,180.833 738.5,179.5C 739.167,179.5 739.5,179.833 739.5,180.5C 739.842,181.338 740.508,181.672 741.5,181.5C 741.842,182.338 742.508,182.672 743.5,182.5C 743.842,183.338 744.508,183.672 745.5,183.5C 745.842,184.338 746.508,184.672 747.5,184.5C 748.167,185.833 748.833,185.833 749.5,184.5C 750.492,184.328 751.158,184.662 751.5,185.5C 750.443,186.206 750.776,186.539 752.5,186.5C 753.209,187.404 754.209,187.737 755.5,187.5C 755.842,188.338 756.508,188.672 757.5,188.5C 758.209,189.404 759.209,189.737 760.5,189.5C 761.911,191.539 763.911,192.539 766.5,192.5C 766.842,193.338 767.508,193.672 768.5,193.5C 769.209,194.404 770.209,194.737 771.5,194.5C 772.78,195.931 774.447,196.598 776.5,196.5C 778.579,198.873 781.246,200.206 784.5,200.5C 944.867,273.015 1099.87,355.515 1249.5,448C 1353.04,513.568 1452.04,585.235 1546.5,663C 1585.9,696.654 1624.07,731.82 1661,768.5C 1673.04,782.208 1684.71,796.208 1696,810.5C 1698.5,814.833 1701,819.167 1703.5,823.5C 1702.28,826.059 1700.28,827.393 1697.5,827.5C 1675.58,821.206 1655.58,811.206 1637.5,797.5C 1593.68,757.177 1549.68,717.011 1505.5,677C 1415.69,599.208 1320.69,528.208 1220.5,464C 1102.86,389.031 981.858,320.698 857.5,259C 830.99,246.245 804.657,233.245 778.5,220C 758.402,210.284 738.069,201.117 717.5,192.5C 714.753,189.793 711.42,188.127 707.5,187.5C 707.158,186.662 706.492,186.328 705.5,186.5C 704.22,185.069 702.553,184.402 700.5,184.5C 699.341,182.75 697.674,181.75 695.5,181.5C 694.833,180.167 694.167,180.167 693.5,181.5C 692.508,181.672 691.842,181.338 691.5,180.5C 692.557,179.794 692.224,179.461 690.5,179.5C 690.158,178.662 689.492,178.328 688.5,178.5C 687.833,177.167 687.167,177.167 686.5,178.5C 685.833,178.5 685.5,178.167 685.5,177.5C 685.167,176.167 684.833,176.167 684.5,177.5C 683.833,177.5 683.5,177.167 683.5,176.5C 682.833,176.5 682.5,176.167 682.5,175.5C 682.158,174.662 681.492,174.328 680.5,174.5C 679.833,173.167 679.167,173.167 678.5,174.5C 677.508,174.672 676.842,174.338 676.5,173.5C 675.508,173.672 674.842,173.338 674.5,172.5C 675.557,171.794 675.224,171.461 673.5,171.5C 672.833,170.167 672.167,170.167 671.5,171.5C 670.833,171.5 670.5,171.167 670.5,170.5C 670.167,169.167 669.833,169.167 669.5,170.5C 668.833,170.5 668.5,170.167 668.5,169.5C 668.167,168.167 667.833,168.167 667.5,169.5C 666.833,169.5 666.5,169.167 666.5,168.5C 666.167,167.167 665.833,167.167 665.5,168.5C 664.833,168.5 664.5,168.167 664.5,167.5C 664.167,166.167 663.833,166.167 663.5,167.5C 662.833,167.5 662.5,167.167 662.5,166.5C 662.167,165.167 661.833,165.167 661.5,166.5C 658.101,164.801 654.768,163.134 651.5,161.5C 651.167,160.167 650.833,160.167 650.5,161.5C 649.833,161.5 649.5,161.167 649.5,160.5C 649.167,159.167 648.833,159.167 648.5,160.5C 612.783,143.055 576.783,126.221 540.5,110C 541,109.833 541.5,109.667 542,109.5C 619.861,115.213 698.528,122.546 778,131.5C 890.247,147.25 1003.08,165.25 1116.5,185.5C 1117.42,185.457 1118.08,185.124 1118.5,184.5 Z"/></g>
<g><path style="opacity:0.235" fill="#6abb30" d="M 739.5,111.5 C 744.076,111.438 748.409,112.105 752.5,113.5C 747.924,113.562 743.591,112.895 739.5,111.5 Z"/></g>
<g><path style="opacity:0.939" fill="#07694b" d="M 1116.5,189.5 C 1101.12,188.55 1085.79,187.05 1070.5,185C 954.394,169.213 838.394,155.213 722.5,143C 701.187,141.001 679.854,139.668 658.5,139C 898.657,226.473 1126.99,337.807 1343.5,473C 1424.64,524.815 1502.97,580.482 1578.5,640C 1597.54,657.372 1616.87,674.372 1636.5,691C 1644.36,698.53 1651.86,706.364 1659,714.5C 1659.84,718.827 1658.01,720.827 1653.5,720.5C 1637.62,715.47 1622.95,707.97 1609.5,698C 1486.34,594.213 1355.34,501.213 1216.5,419C 1102.44,352.138 985.444,290.804 865.5,235C 843.938,225.052 822.272,215.385 800.5,206C 795.244,203.859 789.91,202.026 784.5,200.5C 782.421,198.127 779.754,196.794 776.5,196.5C 775.22,195.069 773.553,194.402 771.5,194.5C 770.791,193.596 769.791,193.263 768.5,193.5C 768.158,192.662 767.492,192.328 766.5,192.5C 764.967,190.755 762.967,189.755 760.5,189.5C 759.791,188.596 758.791,188.263 757.5,188.5C 757.158,187.662 756.492,187.328 755.5,187.5C 754.791,186.596 753.791,186.263 752.5,186.5C 752.5,185.833 752.167,185.5 751.5,185.5C 751.158,184.662 750.492,184.328 749.5,184.5C 748.833,184.5 748.167,184.5 747.5,184.5C 747.158,183.662 746.492,183.328 745.5,183.5C 745.158,182.662 744.492,182.328 743.5,182.5C 743.158,181.662 742.492,181.328 741.5,181.5C 741.158,180.662 740.492,180.328 739.5,180.5C 739.5,179.833 739.167,179.5 738.5,179.5C 737.833,179.5 737.167,179.5 736.5,179.5C 736.5,178.833 736.167,178.5 735.5,178.5C 735.167,178.5 734.833,178.5 734.5,178.5C 734.5,177.833 734.167,177.5 733.5,177.5C 733.167,177.5 732.833,177.5 732.5,177.5C 732.158,176.662 731.492,176.328 730.5,176.5C 730.167,176.5 729.833,176.5 729.5,176.5C 729.5,175.833 729.167,175.5 728.5,175.5C 728.167,175.5 727.833,175.5 727.5,175.5C 727.5,174.833 727.167,174.5 726.5,174.5C 725.833,174.5 725.167,174.5 724.5,174.5C 724.158,173.662 723.492,173.328 722.5,173.5C 722.5,172.833 722.167,172.5 721.5,172.5C 721.167,172.5 720.833,172.5 720.5,172.5C 716.979,170.771 713.313,169.438 709.5,168.5C 708.833,168.5 708.5,168.167 708.5,167.5C 707.833,167.167 707.167,166.833 706.5,166.5C 706.167,166.5 705.833,166.5 705.5,166.5C 673.697,153.702 641.363,140.869 608.5,128C 607.304,127.346 607.304,126.846 608.5,126.5C 633.531,128.118 658.364,129.785 683,131.5C 827.112,146.583 971.279,165.416 1115.5,188C 1116.06,188.383 1116.39,188.883 1116.5,189.5 Z"/></g>
<g><path style="opacity:0.235" fill="#6abb30" d="M 831.5,126.5 C 836.076,126.438 840.409,127.105 844.5,128.5C 839.924,128.562 835.591,127.895 831.5,126.5 Z"/></g>
<g><path style="opacity:0.059" fill="#5fb033" d="M 923.5,142.5 C 926.373,142.802 929.039,143.469 931.5,144.5C 928.447,144.889 925.78,144.223 923.5,142.5 Z"/></g>
<g><path style="opacity:0.059" fill="#52a537" d="M 1017.5,405.5 C 1019.03,405.427 1020.03,406.094 1020.5,407.5C 1018.97,407.573 1017.97,406.906 1017.5,405.5 Z"/></g>
<g><path style="opacity:0.957" fill="#00674b" d="M 545.5,464.5 C 555.833,464.5 566.167,464.5 576.5,464.5C 576.5,499.833 576.5,535.167 576.5,570.5C 588.838,570.667 601.171,570.5 613.5,570C 618.914,567.694 621.747,563.527 622,557.5C 622.5,540.17 622.667,522.837 622.5,505.5C 632.833,505.5 643.167,505.5 653.5,505.5C 653.667,526.836 653.5,548.169 653,569.5C 650.131,586.034 640.631,596.534 624.5,601C 598.169,601.5 571.835,601.667 545.5,601.5C 545.5,555.833 545.5,510.167 545.5,464.5 Z"/></g>
<g><path style="opacity:0.918" fill="#01674b" d="M 627.5,463.5 C 636.054,463.596 644.554,463.929 653,464.5C 653.5,474.828 653.666,485.161 653.5,495.5C 643.167,495.5 632.833,495.5 622.5,495.5C 622.5,485.167 622.5,474.833 622.5,464.5C 624.415,464.784 626.081,464.451 627.5,463.5 Z"/></g>
<g><path style="opacity:0.978" fill="#4ebc37" d="M 842.5,464.5 C 844.495,509.821 845.162,555.488 844.5,601.5C 836.742,601.833 829.742,601.499 823.5,600.5C 824.333,555.669 824.833,510.669 825,465.5C 830.713,465.784 836.546,465.451 842.5,464.5 Z"/></g>
<g><path style="opacity:0.361" fill="#7dca29" d="M 749.5,464.5 C 749.5,464.833 749.5,465.167 749.5,465.5C 743.167,465.5 736.833,465.5 730.5,465.5C 730.5,471.833 730.5,478.167 730.5,484.5C 730.167,484.5 729.833,484.5 729.5,484.5C 729.5,477.833 729.5,471.167 729.5,464.5C 736.143,464.293 742.81,464.293 749.5,464.5 Z"/></g>
<g><path style="opacity:0.968" fill="#4fbe36" d="M 749.5,465.5 C 749.5,471.833 749.5,478.167 749.5,484.5C 743.167,484.5 736.833,484.5 730.5,484.5C 730.5,478.167 730.5,471.833 730.5,465.5C 736.833,465.5 743.167,465.5 749.5,465.5 Z"/></g>
<g><path style="opacity:0.235" fill="#6dbe2e" d="M 842.5,464.5 C 836.546,465.451 830.713,465.784 825,465.5C 824.833,510.669 824.333,555.669 823.5,600.5C 823.403,555.95 823.069,511.45 822.5,467C 823.167,466 823.833,465 824.5,464C 830.681,463.181 836.681,463.347 842.5,464.5 Z"/></g>
<g><path style="opacity:0.973" fill="#50bd36" d="M 1108.5,600.5 C 1033.74,601.164 959.069,601.83 884.5,602.5C 883.527,613.612 878.527,622.445 869.5,629C 855.095,636.303 839.928,638.803 824,636.5C 823.19,629.918 823.357,623.418 824.5,617C 834.29,616.977 843.957,615.977 853.5,614C 855.286,613.215 856.786,612.049 858,610.5C 860.442,607.952 862.108,604.952 863,601.5C 863.5,569.502 863.667,537.502 863.5,505.5C 870.5,505.5 877.5,505.5 884.5,505.5C 884.5,530.833 884.5,556.167 884.5,581.5C 893.506,581.666 902.506,581.5 911.5,581C 921.297,576.834 925.797,569.334 925,558.5C 925.5,540.836 925.667,523.17 925.5,505.5C 932.167,505.5 938.833,505.5 945.5,505.5C 945.667,527.169 945.5,548.836 945,570.5C 944.538,574.422 943.038,577.755 940.5,580.5C 939.711,580.783 939.044,581.283 938.5,582C 951.673,582.827 964.673,582.66 977.5,581.5C 977.5,542.5 977.5,503.5 977.5,464.5C 984.167,464.5 990.833,464.5 997.5,464.5C 997.333,491.169 997.5,517.835 998,544.5C 1010.99,526.922 1028.15,515.755 1049.5,511C 1062.1,510.121 1074.1,512.454 1085.5,518C 1095.02,524.874 1101.19,534.041 1104,545.5C 1105.54,551.798 1106.88,558.131 1108,564.5C 1108.5,576.495 1108.67,588.495 1108.5,600.5 Z M 1087.5,581.5 C 1054.66,581.832 1022,581.498 989.5,580.5C 999.925,559.242 1015.59,543.075 1036.5,532C 1061.88,523.773 1078.38,532.273 1086,557.5C 1087.32,565.439 1087.82,573.439 1087.5,581.5 Z"/></g>
<g><path style="opacity:0.137" fill="#3e993d" d="M 749.5,464.5 C 750.491,471.313 750.825,478.313 750.5,485.5C 743.313,485.825 736.313,485.491 729.5,484.5C 729.833,484.5 730.167,484.5 730.5,484.5C 736.833,484.5 743.167,484.5 749.5,484.5C 749.5,478.167 749.5,471.833 749.5,465.5C 749.5,465.167 749.5,464.833 749.5,464.5 Z"/></g>
<g><path style="opacity:0.964" fill="#03684b" d="M 269.5,504.5 C 279.833,504.5 290.167,504.5 300.5,504.5C 300.333,524.836 300.5,545.169 301,565.5C 304.36,596.545 321.693,610.212 353,606.5C 359.833,606.333 366.667,606.167 373.5,606C 373.167,573 372.833,540 372.5,507C 372.957,506.586 373.291,506.086 373.5,505.5C 383.812,504.501 394.145,504.168 404.5,504.5C 404.5,526.5 404.5,548.5 404.5,570.5C 414.172,570.666 423.839,570.5 433.5,570C 432.506,548.575 432.173,527.075 432.5,505.5C 443.038,504.574 453.371,504.574 463.5,505.5C 464.5,527.156 464.833,548.823 464.5,570.5C 471.921,570.891 479.254,570.391 486.5,569C 488.378,567.457 489.878,565.624 491,563.5C 492.45,544.221 492.95,524.888 492.5,505.5C 503.038,504.574 513.371,504.574 523.5,505.5C 524.869,525.851 524.702,546.184 523,566.5C 520.654,580.377 513.488,590.877 501.5,598C 497.943,599.408 494.276,600.408 490.5,601C 461.835,601.5 433.169,601.667 404.5,601.5C 404.5,613.5 404.5,625.5 404.5,637.5C 379.164,637.667 353.831,637.5 328.5,637C 294.61,630.765 275.11,610.265 270,575.5C 269.5,551.836 269.333,528.169 269.5,504.5 Z"/></g>
<g><path style="opacity:0.968" fill="#50bc36" d="M 675.5,505.5 C 682.5,505.5 689.5,505.5 696.5,505.5C 696.333,528.502 696.5,551.502 697,574.5C 698.786,589.915 705.619,602.415 717.5,612C 719.957,613.562 722.624,614.562 725.5,615C 744.463,616.406 763.463,616.906 782.5,616.5C 782.5,579.5 782.5,542.5 782.5,505.5C 789.833,505.5 797.167,505.5 804.5,505.5C 804.667,549.168 804.5,592.835 804,636.5C 779.572,637.661 755.072,637.827 730.5,637C 704.749,631.439 687.249,615.939 678,590.5C 676.373,584.446 675.206,578.613 674.5,573C 675.494,550.575 675.827,528.075 675.5,505.5 Z"/></g>
<g><path style="opacity:0.235" fill="#79cb29" d="M 940.5,580.5 C 952.655,581.495 964.989,581.829 977.5,581.5C 964.673,582.66 951.673,582.827 938.5,582C 939.044,581.283 939.711,580.783 940.5,580.5 Z"/></g>
<g><path style="opacity:0.235" fill="#79cb29" d="M 989.5,580.5 C 1022,581.498 1054.66,581.832 1087.5,581.5C 1071.91,582.174 1055.57,582.507 1038.5,582.5C 1021.83,582.167 1005.17,581.833 988.5,581.5C 988.624,580.893 988.957,580.56 989.5,580.5 Z"/></g>
<g><path style="opacity:0.137" fill="#3c983d" d="M 1108.5,600.5 C 1034.17,602.497 959.507,603.164 884.5,602.5C 959.069,601.83 1033.74,601.164 1108.5,600.5 Z"/></g>
<g><path style="opacity:0.947" fill="#54bc35" d="M 890.5,616.5 C 897.508,616.334 904.508,616.5 911.5,617C 912.643,623.418 912.81,629.918 912,636.5C 910.333,637.167 908.667,637.833 907,638.5C 903,638.5 899,638.5 895,638.5C 893.795,637.929 892.628,637.262 891.5,636.5C 890.538,629.892 890.205,623.226 890.5,616.5 Z"/></g>
<g><path style="opacity:0.96" fill="#53bc36" d="M 919.5,616.5 C 926.5,616.5 933.5,616.5 940.5,616.5C 940.666,623.175 940.5,629.842 940,636.5C 938.333,637.167 936.667,637.833 935,638.5C 929.98,637.534 924.813,637.201 919.5,637.5C 919.5,630.5 919.5,623.5 919.5,616.5 Z"/></g>
<g><path style="opacity:0.235" fill="#5fb434" d="M 1169.5,671.5 C 1170.92,670.549 1172.59,670.216 1174.5,670.5C 1174.66,671.873 1174.49,673.207 1174,674.5C 1172.73,673.117 1171.23,672.117 1169.5,671.5 Z"/></g>
<g><path style="opacity:0.059" fill="#4a9b3b" d="M 675.5,781.5 C 678.74,780.258 682.074,780.424 685.5,782C 682.076,782.747 678.743,782.58 675.5,781.5 Z"/></g>
<g><path style="opacity:0.059" fill="#58a934" d="M 686.5,781.5 C 687.833,782.167 687.833,782.167 686.5,781.5 Z"/></g>
<g><path style="opacity:0.917" fill="#0c6b4b" d="M 532.5,859.5 C 537.167,859.5 541.833,859.5 546.5,859.5C 546.765,878.173 546.932,896.84 547,915.5C 546.043,921.127 542.876,924.96 537.5,927C 531.449,927.208 525.449,927.708 519.5,928.5C 497.989,927.256 476.489,927.256 455,928.5C 454.075,927.953 453.242,927.287 452.5,926.5C 454.121,922.756 456.121,919.256 458.5,916C 469.161,915.5 479.828,915.333 490.5,915.5C 488.819,906.486 483.486,901.153 474.5,899.5C 474.5,895.833 474.5,892.167 474.5,888.5C 484.564,887.949 492.731,891.616 499,899.5C 501.564,904.532 503.731,909.699 505.5,915C 513.882,915.803 522.215,915.636 530.5,914.5C 531.086,914.291 531.586,913.957 532,913.5C 532.207,909.911 532.707,906.411 533.5,903C 532.947,889.276 532.613,874.776 532.5,859.5 Z"/></g>
<g><path style="opacity:0.931" fill="#0a6a4b" d="M 566.5,859.5 C 571.5,859.5 576.5,859.5 581.5,859.5C 581.5,882.167 581.5,904.833 581.5,927.5C 576.833,927.5 572.167,927.5 567.5,927.5C 567.775,904.525 567.442,881.858 566.5,859.5 Z"/></g>
<g><path style="opacity:0.917" fill="#0b6b4b" d="M 704.5,859.5 C 709.5,859.5 714.5,859.5 719.5,859.5C 719.333,877.17 719.5,894.836 720,912.5C 720.374,913.416 720.874,914.25 721.5,915C 731.267,915.947 740.934,915.613 750.5,914C 752.592,912.147 753.592,909.814 753.5,907C 752.672,900.926 752.339,894.759 752.5,888.5C 757.5,888.5 762.5,888.5 767.5,888.5C 767.104,896.253 767.604,903.92 769,911.5C 770.214,913.049 771.714,914.215 773.5,915C 782.833,915.667 792.167,915.667 801.5,915C 803.329,914.727 804.829,913.893 806,912.5C 806.5,904.507 806.666,896.507 806.5,888.5C 811.167,888.5 815.833,888.5 820.5,888.5C 820.464,895.868 820.964,903.201 822,910.5C 823.227,912.726 825.061,914.226 827.5,915C 848.167,915.667 868.833,915.667 889.5,915C 886.892,903.893 879.892,898.726 868.5,899.5C 863.515,899.101 858.848,900.101 854.5,902.5C 852.072,899.982 850.405,896.982 849.5,893.5C 852.626,890.056 856.626,888.223 861.5,888C 889.993,885.496 903.993,898.496 903.5,927C 901.567,927.251 899.734,927.751 898,928.5C 875.458,927.604 853.458,927.604 832,928.5C 825.634,928.483 820.634,925.816 817,920.5C 812.844,925.578 807.511,928.245 801,928.5C 793.951,927.731 786.284,927.731 778,928.5C 771.968,928.152 767.301,925.486 764,920.5C 759.331,925.335 753.664,928.002 747,928.5C 737.527,928.064 726.36,927.564 713.5,927C 710.333,925.167 707.833,922.667 706,919.5C 705.809,913.917 705.309,908.417 704.5,903C 704.752,889.15 704.752,874.65 704.5,859.5 Z"/></g>
<g><path style="opacity:0.922" fill="#0b6a4b" d="M 925.5,859.5 C 930.099,859.2 934.599,859.533 939,860.5C 939.667,875.833 939.667,891.167 939,906.5C 935.375,908.538 931.542,910.205 927.5,911.5C 926.914,911.291 926.414,910.957 926,910.5C 925.5,893.503 925.333,876.503 925.5,859.5 Z"/></g>
<g><path style="opacity:0.918" fill="#0a6a4b" d="M 947.5,859.5 C 952.5,859.5 957.5,859.5 962.5,859.5C 962.339,873.345 962.672,887.179 963.5,901C 963.366,914.235 957.199,922.402 945,925.5C 943.933,926.191 942.766,926.691 941.5,927C 934.508,927.5 927.508,927.666 920.5,927.5C 920.207,923.563 920.54,919.73 921.5,916C 929.991,916.591 937.824,914.757 945,910.5C 946,908.833 947,907.167 948,905.5C 948.758,889.846 948.592,874.513 947.5,859.5 Z"/></g>
<g><path style="opacity:0.922" fill="#06694b" d="M 982.5,859.5 C 987.167,859.5 991.833,859.5 996.5,859.5C 996.5,882.167 996.5,904.833 996.5,927.5C 991.901,927.8 987.401,927.467 983,926.5C 982.5,904.169 982.333,881.836 982.5,859.5 Z"/></g>
<g><path style="opacity:0.921" fill="#096a4b" d="M 327.5,919.5 C 319.567,917.532 311.234,916.865 302.5,917.5C 301.974,912.617 302.474,907.617 304,902.5C 312.141,886.522 324.974,881.022 342.5,886C 346.615,888.448 350.448,891.281 354,894.5C 357.216,900.264 359.883,906.264 362,912.5C 362.903,913.701 364.069,914.535 365.5,915C 383.5,915.667 401.5,915.667 419.5,915C 415.569,905.289 408.403,900.123 398,899.5C 391.977,899.952 386.31,901.619 381,904.5C 378.628,902.79 376.962,900.456 376,897.5C 375.219,896.056 375.386,894.723 376.5,893.5C 387.084,885.032 397.251,876.032 407,866.5C 410.712,868.765 413.878,871.598 416.5,875C 412.111,880.057 407.111,884.39 401.5,888C 416.017,888.196 425.851,895.029 431,908.5C 432.704,914.722 433.537,921.055 433.5,927.5C 410.555,927.285 388.055,927.618 366,928.5C 359.9,927.949 354.9,925.283 351,920.5C 348.549,915.717 346.549,910.717 345,905.5C 340.283,898.15 333.783,895.983 325.5,899C 322.704,900.419 320.704,902.585 319.5,905.5C 326.803,906.497 334.137,906.831 341.5,906.5C 345.041,926.592 337.708,940.758 319.5,949C 304.951,952.812 292.784,948.979 283,937.5C 280.522,934.211 278.856,930.544 278,926.5C 277.547,919.823 277.047,913.156 276.5,906.5C 281.43,906.197 286.263,906.531 291,907.5C 291.121,914.246 291.788,920.913 293,927.5C 300.237,937.601 309.404,939.767 320.5,934C 324.974,929.896 327.307,925.063 327.5,919.5 Z"/></g>
<g><path style="opacity:0.834" fill="#0c6b4a" d="M 476.5,868.5 C 480.064,869.423 483.731,869.756 487.5,869.5C 487.793,873.437 487.46,877.27 486.5,881C 482.514,881.499 478.514,881.666 474.5,881.5C 473.999,876.847 474.666,872.514 476.5,868.5 Z"/></g>
<g><path style="opacity:0.847" fill="#0c6b4a" d="M 799.5,868.5 C 803.4,869.43 807.4,869.763 811.5,869.5C 811.793,873.437 811.46,877.27 810.5,881C 806.514,881.499 802.514,881.666 798.5,881.5C 798.231,877.069 798.564,872.735 799.5,868.5 Z"/></g>
<g><path style="opacity:0.839" fill="#146e4a" d="M 815.5,869.5 C 819.833,869.5 824.167,869.5 828.5,869.5C 828.5,873.5 828.5,877.5 828.5,881.5C 824.154,881.666 819.821,881.499 815.5,881C 814.2,877.168 814.2,873.334 815.5,869.5 Z"/></g>
<g><path style="opacity:0.875" fill="#05694b" d="M 878.5,879.5 C 874.265,880.436 869.931,880.769 865.5,880.5C 865.5,876.833 865.5,873.167 865.5,869.5C 869.833,869.5 874.167,869.5 878.5,869.5C 878.5,872.833 878.5,876.167 878.5,879.5 Z"/></g>
<g><path style="opacity:0.137" fill="#409a3c" d="M 878.5,879.5 C 876.777,880.8 874.61,881.467 872,881.5C 869.639,881.496 867.473,881.163 865.5,880.5C 869.931,880.769 874.265,880.436 878.5,879.5 Z"/></g>
<g><path style="opacity:0.934" fill="#0b6a4b" d="M 670.5,888.5 C 675.167,888.5 679.833,888.5 684.5,888.5C 684.221,897.535 684.555,906.535 685.5,915.5C 684.487,936.677 673.487,948.177 652.5,950C 650.356,947.021 648.022,944.188 645.5,941.5C 645.709,940.914 646.043,940.414 646.5,940C 662.471,938.864 670.804,930.364 671.5,914.5C 671.696,905.951 671.363,897.284 670.5,888.5 Z"/></g>
<g><path style="opacity:0.137" fill="#3e993d" d="M 302.5,917.5 C 311.234,916.865 319.567,917.532 327.5,919.5C 319.067,918.861 310.734,918.194 302.5,917.5 Z"/></g>
<g><path style="opacity:0.791" fill="#166f4a" d="M 744.5,930.5 C 754.488,927.99 758.322,931.657 756,941.5C 751.822,943.399 747.322,944.065 742.5,943.5C 741.999,938.847 742.666,934.514 744.5,930.5 Z"/></g>
<g><path style="opacity:0.797" fill="#106c4a" d="M 761.5,930.5 C 765.106,930.211 768.606,930.544 772,931.5C 772.499,935.486 772.666,939.486 772.5,943.5C 768.167,943.5 763.833,943.5 759.5,943.5C 758.999,938.847 759.666,934.514 761.5,930.5 Z"/></g>
<g><path style="opacity:0.828" fill="#096a4b" d="M 295.5,956.5 C 299.833,956.5 304.167,956.5 308.5,956.5C 308.5,960.5 308.5,964.5 308.5,968.5C 304.486,968.666 300.486,968.499 296.5,968C 295.54,964.27 295.207,960.437 295.5,956.5 Z"/></g>
<g><path style="opacity:0.83" fill="#01674b" d="M 313.5,956.5 C 317.5,956.5 321.5,956.5 325.5,956.5C 325.5,960.5 325.5,964.5 325.5,968.5C 321.5,968.5 317.5,968.5 313.5,968.5C 313.5,964.5 313.5,960.5 313.5,956.5 Z"/></g>
<g><path style="opacity:0.059" fill="#58a934" d="M 912.5,981.5 C 913.601,980.402 914.934,980.235 916.5,981C 915.207,981.49 913.873,981.657 912.5,981.5 Z"/></g>
<g><path style="opacity:0.059" fill="#58a934" d="M 299.5,1049.5 C 300.833,1050.17 300.833,1050.17 299.5,1049.5 Z"/></g>
</svg>
