<?xml version="1.0" encoding="UTF-8"?>
<!DOCTYPE svg PUBLIC "-//W3C//DTD SVG 1.1//EN" "http://www.w3.org/Graphics/SVG/1.1/DTD/svg11.dtd">
<svg xmlns="http://www.w3.org/2000/svg" version="1.1" width="3840px" height="2160px" style="shape-rendering:geometricPrecision; text-rendering:geometricPrecision; image-rendering:optimizeQuality; fill-rule:evenodd; clip-rule:evenodd" xmlns:xlink="http://www.w3.org/1999/xlink">
<g><path style="opacity:0.995" fill="#0046af" d="M 1009.5,68.5 C 1018.79,67.099 1027.12,69.2656 1034.5,75C 1051.97,93.1258 1067.13,112.959 1080,134.5C 1086.67,147.463 1085.67,159.796 1077,171.5C 1071.83,178 1066,183.833 1059.5,189C 937.778,285.218 816.778,382.384 696.5,480.5C 690.592,489.257 691.592,497.09 699.5,504C 701.788,504.822 704.122,505.489 706.5,506C 883.833,506.333 1061.17,506.667 1238.5,507C 1255.85,507.526 1272.85,510.192 1289.5,515C 1311.05,523.224 1323.89,538.724 1328,561.5C 1330.92,576.355 1332.59,591.355 1333,606.5C 1333.33,667.5 1333.67,728.5 1334,789.5C 1335.26,805.854 1341.76,819.688 1353.5,831C 1359.5,835.334 1366.17,838.001 1373.5,839C 1478.83,839.667 1584.17,839.667 1689.5,839C 1702.33,837.173 1710.5,830.006 1714,817.5C 1714.96,812.877 1715.62,808.21 1716,803.5C 1716.33,715.5 1716.67,627.5 1717,539.5C 1719.31,506.187 1737.15,488.687 1770.5,487C 1788.5,486.333 1806.5,486.333 1824.5,487C 1857.86,488.692 1875.69,506.192 1878,539.5C 1878.67,629.5 1878.67,719.5 1878,809.5C 1877.52,837.923 1871.18,864.923 1859,890.5C 1843.81,914.034 1822.31,928.534 1794.5,934C 1774.39,938.235 1754.06,940.568 1733.5,941C 1157.83,941.5 582.167,941.667 6.5,941.5C 10.6216,913.419 24.2883,891.252 47.5,875C 70.5669,859.528 95.9002,849.528 123.5,845C 133.451,843.293 143.451,841.959 153.5,841C 489.487,839.676 825.487,839.009 1161.5,839C 1186.26,834.568 1199.43,819.735 1201,794.5C 1201.67,742.833 1201.67,691.167 1201,639.5C 1200.24,624.13 1192.74,613.63 1178.5,608C 1172.64,606.213 1166.64,605.213 1160.5,605C 973.5,604.667 786.5,604.333 599.5,604C 571.792,602.295 547.458,592.628 526.5,575C 500.213,544.78 494.38,510.947 509,473.5C 513.832,464.499 519.165,455.832 525,447.5C 534.136,437.363 543.636,427.53 553.5,418C 690.833,309.333 828.167,200.667 965.5,92C 979.254,82.2922 993.92,74.4589 1009.5,68.5 Z"/></g>
<g><path style="opacity:0.995" fill="#0046af" d="M 2053.5,82.5 C 2069.84,82.3334 2086.17,82.5001 2102.5,83C 2123.51,84.0115 2135.67,94.8448 2139,115.5C 2139.94,121.803 2140.61,128.137 2141,134.5C 2141.33,353.833 2141.67,573.167 2142,792.5C 2144.05,814.46 2154.88,830.294 2174.5,840C 2177.1,840.92 2179.77,841.587 2182.5,842C 2339.17,842.667 2495.83,842.667 2652.5,842C 2672.16,837.675 2683.66,825.508 2687,805.5C 2688,799.539 2688.66,793.539 2689,787.5C 2689.33,702.833 2689.67,618.167 2690,533.5C 2690.54,521.879 2693.88,511.212 2700,501.5C 2709.06,493.923 2719.56,490.089 2731.5,490C 2746.17,489.333 2760.83,489.333 2775.5,490C 2787.44,490.089 2797.94,493.923 2807,501.5C 2813.25,510.818 2816.58,521.152 2817,532.5C 2817.33,616.167 2817.67,699.833 2818,783.5C 2817.86,802.424 2824.36,818.59 2837.5,832C 2843.63,837.05 2850.63,840.384 2858.5,842C 2967.54,842.99 3076.54,842.656 3185.5,841C 3197.21,836.106 3203.37,827.273 3204,814.5C 3204.33,723.833 3204.67,633.167 3205,542.5C 3206.34,511.829 3222.18,494.662 3252.5,491C 3274.5,489 3296.5,489 3318.5,491C 3349.09,494.945 3364.92,512.445 3366,543.5C 3366.33,628.833 3366.67,714.167 3367,799.5C 3366.4,813.663 3370.9,825.829 3380.5,836C 3385.42,839.127 3390.75,841.127 3396.5,842C 3481.2,842.986 3565.87,842.653 3650.5,841C 3672.87,833.612 3685.37,818.112 3688,794.5C 3688.33,712.5 3688.67,630.5 3689,548.5C 3688.79,535.143 3690.79,522.143 3695,509.5C 3699.4,499.714 3706.9,493.88 3717.5,492C 3736.76,489.547 3756.09,488.88 3775.5,490C 3786.89,490.13 3797.06,493.63 3806,500.5C 3813.21,510.982 3816.87,522.649 3817,535.5C 3817.67,628.833 3817.67,722.167 3817,815.5C 3816.65,842.247 3811.32,867.914 3801,892.5C 3791.99,910.507 3778.16,923.341 3759.5,931C 3737.24,939.1 3714.24,943.433 3690.5,944C 3173.17,944.667 2655.83,944.667 2138.5,944C 2110.3,943.896 2083.64,937.562 2058.5,925C 2044.79,916.623 2034.62,905.123 2028,890.5C 2018.16,865.131 2013.16,838.797 2013,811.5C 2012.33,585.167 2012.33,358.833 2013,132.5C 2013.04,120.017 2016.04,108.351 2022,97.5C 2030.68,88.5584 2041.18,83.5584 2053.5,82.5 Z"/></g>
<g><path style="opacity:0.992" fill="#0046af" d="M 1549.5,1068.5 C 1581.46,1068.29 1604.29,1082.63 1618,1111.5C 1626.13,1134.17 1623.46,1155.51 1610,1175.5C 1606,1180.83 1602,1186.17 1598,1191.5C 1583.17,1207.67 1568.33,1223.83 1553.5,1240C 1542.11,1251.21 1529.11,1260.21 1514.5,1267C 1491.76,1274.99 1471.1,1271.32 1452.5,1256C 1420.39,1228.63 1415.56,1197.13 1438,1161.5C 1441.67,1156.83 1445.33,1152.17 1449,1147.5C 1467.17,1129.33 1485.33,1111.17 1503.5,1093C 1516.77,1080.87 1532.11,1072.7 1549.5,1068.5 Z"/></g>
<g><path style="opacity:0.994" fill="#fe9700" d="M 2428.5,1250.5 C 2440.84,1250.33 2453.17,1250.5 2465.5,1251C 2484.36,1252.87 2493.86,1263.37 2494,1282.5C 2494.33,1509.83 2494.67,1737.17 2495,1964.5C 2497.74,1979.55 2506.91,1987.05 2522.5,1987C 2621.83,1987.67 2721.17,1987.67 2820.5,1987C 2831.52,1987.47 2837.19,1982.3 2837.5,1971.5C 2834.99,1948.48 2828.16,1926.81 2817,1906.5C 2789.92,1858.42 2753.42,1818.92 2707.5,1788C 2663.13,1758.49 2615.13,1736.49 2563.5,1722C 2543.68,1713.86 2536.51,1699.36 2542,1678.5C 2545.52,1661.29 2553.35,1646.45 2565.5,1634C 2578.11,1627.3 2591.45,1625.63 2605.5,1629C 2688.58,1651.52 2761.91,1691.19 2825.5,1748C 2895.88,1814.27 2935.71,1895.77 2945,1992.5C 2945.9,2008.21 2945.57,2023.87 2944,2039.5C 2937.02,2071.12 2917.19,2087.62 2884.5,2089C 2756.5,2089.67 2628.5,2089.67 2500.5,2089C 2482.26,2088.57 2464.59,2085.24 2447.5,2079C 2423.97,2067.79 2409.81,2049.29 2405,2023.5C 2402.16,2009.98 2400.5,1996.31 2400,1982.5C 2399.33,1750.83 2399.33,1519.17 2400,1287.5C 2400.05,1277.9 2402.39,1268.9 2407,1260.5C 2413.18,1254.82 2420.35,1251.49 2428.5,1250.5 Z"/></g>
<g><path style="opacity:0.99" fill="#fe9700" d="M 3063.5,1394.5 C 3089.48,1397.3 3106.31,1411.3 3114,1436.5C 3118.08,1452.29 3116.08,1467.29 3108,1481.5C 3091.22,1503.84 3072.06,1524.01 3050.5,1542C 3040.85,1549.72 3029.85,1554.22 3017.5,1555.5C 3004.18,1554.01 2992.85,1548.51 2983.5,1539C 2959.65,1515.36 2957.81,1490.19 2978,1463.5C 2991.88,1449.62 3005.04,1435.12 3017.5,1420C 3027.3,1410.93 3038.3,1403.6 3050.5,1398C 3054.92,1396.65 3059.25,1395.48 3063.5,1394.5 Z"/></g>
<g><path style="opacity:0.993" fill="#fe9700" d="M 2262.5,1499.5 C 2278.59,1498.92 2294.59,1499.75 2310.5,1502C 2324.31,1505.14 2333.81,1513.31 2339,1526.5C 2341.23,1533.33 2342.57,1540.33 2343,1547.5C 2343.67,1690.17 2343.67,1832.83 2343,1975.5C 2342.85,1999.1 2337.52,2021.44 2327,2042.5C 2316.41,2059.74 2301.58,2071.91 2282.5,2079C 2264.02,2085.21 2245.02,2088.55 2225.5,2089C 2092.83,2089.67 1960.17,2089.67 1827.5,2089C 1793.35,2088.18 1773.52,2071.01 1768,2037.5C 1764.06,1969.27 1778.72,1905.27 1812,1845.5C 1857.93,1765.57 1921.1,1703.07 2001.5,1658C 2024.91,1644.87 2049.57,1634.87 2075.5,1628C 2090.01,1624.21 2104.68,1623.21 2119.5,1625C 2133.33,1628.17 2141.83,1636.67 2145,1650.5C 2146.77,1657.72 2147.77,1665.06 2148,1672.5C 2148.67,1728.5 2148.67,1784.5 2148,1840.5C 2148.35,1849.9 2146.69,1858.9 2143,1867.5C 2139.17,1872.84 2134.01,1876.34 2127.5,1878C 2109.84,1881.33 2092.17,1881.33 2074.5,1878C 2063.79,1874.62 2057.29,1867.46 2055,1856.5C 2053.93,1850.55 2053.26,1844.55 2053,1838.5C 2052.17,1807.93 2052.34,1777.43 2053.5,1747C 2049.04,1747.15 2044.71,1748.15 2040.5,1750C 2016.6,1762.57 1994.93,1778.24 1975.5,1797C 1948.03,1823.49 1924.53,1852.99 1905,1885.5C 1889.63,1911.45 1880.79,1939.45 1878.5,1969.5C 1877.79,1976.92 1880.79,1982.09 1887.5,1985C 1891.11,1985.94 1894.78,1986.61 1898.5,1987C 1998.83,1987.67 2099.17,1987.67 2199.5,1987C 2208.06,1987.11 2212.89,1982.94 2214,1974.5C 2214.33,1831.5 2214.67,1688.5 2215,1545.5C 2217.9,1516.76 2233.74,1501.43 2262.5,1499.5 Z"/></g>
<g><path style="opacity:0.992" fill="#fe9700" d="M 2972.5,1617.5 C 3011.88,1617.02 3051.21,1617.52 3090.5,1619C 3101.67,1623.5 3108.5,1631.67 3111,1643.5C 3111.88,1646.79 3112.55,1650.12 3113,1653.5C 3114.65,1783.15 3114.98,1912.82 3114,2042.5C 3114.11,2054.52 3111.44,2065.85 3106,2076.5C 3100.73,2083.05 3093.89,2086.89 3085.5,2088C 3067.93,2090.66 3050.59,2089.66 3033.5,2085C 3025.68,2081.18 3020.85,2075.01 3019,2066.5C 3016.06,2051.99 3014.89,2037.32 3015.5,2022.5C 3014.5,2022.5 3013.5,2022.5 3012.5,2022.5C 3012.02,1922.09 3012.52,1821.76 3014,1721.5C 3000.06,1719.71 2985.9,1718.55 2971.5,1718C 2947.2,1714.36 2935.03,1700.19 2935,1675.5C 2933.39,1660.29 2936.05,1645.95 2943,1632.5C 2951.1,1623.97 2960.94,1618.97 2972.5,1617.5 Z"/></g>
<g><path style="opacity:0.993" fill="#fe9700" d="M 1645.5,1623.5 C 1660,1622.87 1674.33,1624.03 1688.5,1627C 1703.25,1632.31 1711.42,1642.81 1713,1658.5C 1713.67,1669.5 1713.67,1680.5 1713,1691.5C 1711.5,1710.33 1701.33,1720.5 1682.5,1722C 1593.5,1723.09 1506.84,1737.76 1422.5,1766C 1394,1776.08 1367,1789.08 1341.5,1805C 1337.7,1807.8 1334.2,1810.96 1331,1814.5C 1330.51,1815.79 1330.34,1817.13 1330.5,1818.5C 1433.81,1819.33 1537.14,1819.83 1640.5,1820C 1659.3,1820.49 1676.97,1825.16 1693.5,1834C 1706.9,1843.95 1715.4,1857.12 1719,1873.5C 1720.99,1882.4 1722.32,1891.4 1723,1900.5C 1723.93,1937.86 1723.6,1975.19 1722,2012.5C 1718.25,2053.9 1696.09,2078.4 1655.5,2086C 1646.56,2087.58 1637.56,2088.58 1628.5,2089C 1437.83,2089.5 1247.17,2089.67 1056.5,2089.5C 1064.32,2041.52 1091.32,2010.02 1137.5,1995C 1149.9,1991.25 1162.57,1988.92 1175.5,1988C 1314.83,1987.67 1454.17,1987.33 1593.5,1987C 1596.19,1986.97 1597.53,1985.64 1597.5,1983C 1597.08,1980.82 1596.58,1978.65 1596,1976.5C 1595.33,1960.83 1595.33,1945.17 1596,1929.5C 1597.34,1926.98 1598.17,1924.31 1598.5,1921.5C 1494.5,1921.67 1390.5,1921.5 1286.5,1921C 1264.74,1921.42 1243.74,1917.75 1223.5,1910C 1209.25,1903.08 1200.09,1891.91 1196,1876.5C 1192.92,1860.33 1194.59,1844.66 1201,1829.5C 1214.18,1801.66 1232.35,1777.5 1255.5,1757C 1312.95,1708.27 1378.28,1673.6 1451.5,1653C 1515.04,1634.81 1579.71,1624.97 1645.5,1623.5 Z"/></g>
<g><path style="opacity:0.993" fill="#fe9700" d="M 3604.5,1623.5 C 3617.33,1622.32 3629.66,1624.15 3641.5,1629C 3651.23,1635.96 3656.73,1645.46 3658,1657.5C 3659.64,1720.14 3659.97,1782.81 3659,1845.5C 3659.02,1856.11 3655.52,1865.28 3648.5,1873C 3643.83,1875.84 3638.83,1877.84 3633.5,1879C 3621.54,1880.5 3609.54,1880.84 3597.5,1880C 3576.67,1879.17 3565.83,1868.33 3565,1847.5C 3564.67,1810.83 3564.33,1774.17 3564,1737.5C 3563.73,1735.67 3562.89,1734.17 3561.5,1733C 3519.04,1732.53 3479.38,1742.86 3442.5,1764C 3395.85,1791.98 3357.69,1828.81 3328,1874.5C 3312,1899.51 3300.66,1926.51 3294,1955.5C 3292.27,1963.21 3292.27,1970.87 3294,1978.5C 3295.56,1981.73 3298.06,1983.9 3301.5,1985C 3305.11,1985.94 3308.78,1986.61 3312.5,1987C 3445.83,1987.33 3579.17,1987.67 3712.5,1988C 3749.95,1989.98 3781.45,2004.48 3807,2031.5C 3819.94,2048.23 3828.11,2067.06 3831.5,2088C 3638.97,2089.67 3446.31,2090 3253.5,2089C 3236.04,2088.62 3220.37,2083.29 3206.5,2073C 3195.32,2061.49 3189.16,2047.66 3188,2031.5C 3186.95,1944.64 3211.62,1865.98 3262,1795.5C 3336.6,1697.09 3435.76,1640.92 3559.5,1627C 3574.63,1625.54 3589.63,1624.37 3604.5,1623.5 Z"/></g>
</svg>
